<svg width="18" height="18" viewBox="0 0 18 18" fill="none" xmlns="http://www.w3.org/2000/svg">
<path d="M17.3333 13.0999V15.5999C17.3343 15.832 17.2867 16.0617 17.1937 16.2744C17.1008 16.487 16.9644 16.6779 16.7934 16.8348C16.6224 16.9917 16.4205 17.1112 16.2006 17.1855C15.9808 17.2599 15.7478 17.2875 15.5167 17.2666C12.9523 16.988 10.4892 16.1117 8.32498 14.7083C6.31151 13.4288 4.60443 11.7217 3.32499 9.70825C1.91663 7.53426 1.04019 5.05908 0.766652 2.48325C0.745827 2.25281 0.773214 2.02055 0.847069 1.80127C0.920923 1.58199 1.03963 1.38049 1.19562 1.2096C1.35162 1.03871 1.54149 0.902176 1.75314 0.808686C1.9648 0.715197 2.1936 0.666803 2.42499 0.666585H4.92499C5.32941 0.662604 5.72148 0.805817 6.02812 1.06953C6.33476 1.33324 6.53505 1.69946 6.59165 2.09992C6.69717 2.89997 6.89286 3.68552 7.17499 4.44158C7.2871 4.73985 7.31137 5.06401 7.24491 5.37565C7.17844 5.68729 7.02404 5.97334 6.79998 6.19992L5.74165 7.25825C6.92795 9.34454 8.65536 11.072 10.7417 12.2583L11.8 11.1999C12.0266 10.9759 12.3126 10.8215 12.6243 10.755C12.9359 10.6885 13.26 10.7128 13.5583 10.8249C14.3144 11.107 15.0999 11.3027 15.9 11.4083C16.3048 11.4654 16.6745 11.6693 16.9388 11.9812C17.203 12.2931 17.3435 12.6912 17.3333 13.0999Z" stroke="#212121" stroke-width="1.33333" stroke-linecap="round" stroke-linejoin="round"/>
</svg>
